<?xml version="1.0" encoding="UTF-8"?>
<svg id="Layer_1" xmlns="http://www.w3.org/2000/svg" baseProfile="tiny" version="1.2" viewBox="0 0 141.73 141.73">
  <!-- Generator: Adobe Illustrator 29.2.0, SVG Export Plug-In . SVG Version: 2.1.0 Build 108)  -->
  <path d="M141.73,0v141.73H0V0h141.73ZM32.15,118.98c4.25,3.89,11.14,1.04,15.38,4.38,2.58,2.03,4.64,5.5,7.63,7.01,6.35,3.2,10.59-2.41,16.27-2.18,4.86.19,8.75,4.49,14.29,2.71,3.81-1.22,5.61-4.94,8.49-7.26,3.62-2.93,7.69-1.56,11.88-2.76,9.09-2.59,5.82-11.76,11.62-16.01,2.72-1.99,5.88-2.87,8.13-5.68,3.36-4.2,1.22-8.52.97-13.13-.36-6.63,7.17-9.23,5.95-17-.85-5.4-6.26-7.95-5.95-13.66.25-4.61,2.4-8.93-.97-13.13s-8.88-4.41-11.05-9.4c-1.54-3.54-1.79-7.89-4.99-10.49-4.2-3.42-9.42-1.44-13.77-3.36-3.02-1.33-5.05-5.3-7.77-7.15-7-4.75-11.4,1.64-17.69,1.39-3.26-.13-6.12-2.45-9.23-2.93-7.84-1.21-8.87,3.85-13.83,7.75-4.39,3.46-11.61.23-16.02,4.97-2.51,2.7-2.86,6.87-4.29,10.08-2.2,4.93-10.08,5.79-12.25,11.23-1.83,4.58.93,8.99.17,13.44-.45,2.65-3.55,5.71-4.77,8.21-4.68,9.54,5.13,12.14,4.84,20.03-.21,5.81-2.73,10.04,2.49,14.65,1.48,1.31,7.46,5.66,8.51,2.15.83-2.77-3.6-3.8-5.32-5.34-3.98-3.56-1.01-7.57-1-11.76,0-2.15-.84-5.02-1.86-6.92-2.07-3.86-5.93-5.84-3.6-10.97,1.6-3.53,4.29-4.8,5.14-9.5.78-4.28-1.66-8.87-.27-12.42,1.21-3.07,7.79-4.97,10.28-7.96,2.65-3.18,3.09-10.01,5.55-12.13,2.24-1.94,9.28-1.14,12.79-2.68,4.11-1.81,7.47-8.72,11.63-8.53,4.69.22,6.95,3.62,13.27,3.04,4.86-.45,8.88-5.24,13.54-1.65,4.07,3.13,5.25,7.51,11.64,8.25,2.62.3,6.88-.18,9.09,1.68,2.33,1.96,2.76,8.37,4.83,11.19,2.79,3.81,8.88,5.15,10.65,8.41,1.75,3.23-.68,8.89-.03,13.01.88,5.6,7.94,9.06,5.18,15.09-1.77,3.86-4.81,5.17-5.29,10.45-.47,5.17,3.12,9.97-1.69,13.79-2.87,2.28-5.61,2.53-8.26,5.83-2.85,3.55-2.26,6.42-4,9.82-2.55,5-10.06,2.54-14.71,4.91-5.27,2.69-6.53,9.87-13.57,7.86-4.21-1.2-5.28-2.91-10.43-2.58-3.93.25-7.6,3.36-11.04,3.07-3.19-.27-7.19-7.07-11-8.63-4.47-1.83-11.11.09-13.78-4.18-1.12-1.78-.87-5.1-3.41-5.03-4.85.13-.24,8.29,1.62,9.99ZM105.9,48.16c-.23.21-.59.87-.63,1.18-.18,1.23,2.42,5.76,3.04,7.43,6.41,17.31.25,36.44-14.84,46.78-31.22,21.41-72.27-9.63-60.12-45.47,9.11-26.86,41.56-35.46,63.47-17.74,1.47,1.19,3.24,4.22,5.41,2.36s-.41-3.82-1.82-5.12c-24.44-22.53-65.96-8.87-72.66,23.47-6.76,32.63,22.65,61.23,55.18,52.42,25.72-6.97,39.63-36.87,28.45-61.17-.85-1.85-2.86-6.55-5.49-4.15ZM88.34,51.73c-1.09.19-2.39,1.04-3.25,1.73l-20.3,20.3c-3.19-2.48-7.35-8.99-11.39-9.6-5.56-.84-9.79,5.17-6.76,10.07l14.44,14.57c1.93,1.32,5.08,1.39,7.08.21l27.49-27.49c2.63-5.24-1.46-10.8-7.31-9.8Z" display="none" fill="#006838"/>
  <path d="M32.15,118.98c-1.86-1.7-6.47-9.86-1.62-9.99,2.53-.07,2.29,3.25,3.41,5.03,2.67,4.27,9.31,2.35,13.78,4.18,3.81,1.56,7.82,8.36,11,8.63,3.44.29,7.11-2.81,11.04-3.07,5.15-.33,6.23,1.37,10.43,2.58,7.04,2.01,8.3-5.18,13.57-7.86,4.65-2.37,12.16.09,14.71-4.91,1.73-3.4,1.14-6.27,4-9.82,2.65-3.3,5.39-3.55,8.26-5.83,4.81-3.82,1.22-8.61,1.69-13.79.48-5.29,3.52-6.59,5.29-10.45,2.77-6.03-4.3-9.5-5.18-15.09-.65-4.12,1.78-9.79.03-13.01-1.77-3.26-7.86-4.61-10.65-8.41-2.07-2.83-2.51-9.23-4.83-11.19-2.21-1.87-6.47-1.38-9.09-1.68-6.39-.74-7.57-5.12-11.64-8.25-4.66-3.59-8.68,1.2-13.54,1.65-6.32.59-8.58-2.81-13.27-3.04-4.16-.2-7.53,6.72-11.63,8.53-3.51,1.55-10.55.75-12.79,2.68-2.46,2.12-2.9,8.95-5.55,12.13-2.49,2.99-9.07,4.89-10.28,7.96-1.4,3.55,1.04,8.14.27,12.42-.85,4.7-3.54,5.97-5.14,9.5-2.32,5.13,1.53,7.11,3.6,10.97,1.02,1.9,1.86,4.78,1.86,6.92,0,4.19-2.98,8.2,1,11.76,1.72,1.54,6.15,2.57,5.32,5.34-1.05,3.51-7.03-.84-8.51-2.15-5.22-4.6-2.7-8.83-2.49-14.65.29-7.9-9.51-10.5-4.84-20.03,1.23-2.5,4.33-5.56,4.77-8.21.75-4.44-2.01-8.85-.17-13.44,2.18-5.44,10.06-6.3,12.25-11.23,1.43-3.21,1.77-7.38,4.29-10.08,4.42-4.74,11.63-1.51,16.02-4.97,4.95-3.9,5.98-8.96,13.83-7.75,3.11.48,5.97,2.8,9.23,2.93,6.29.25,10.7-6.14,17.69-1.39,2.72,1.85,4.76,5.82,7.77,7.15,4.35,1.92,9.57-.06,13.77,3.36,3.19,2.6,3.45,6.95,4.99,10.49,2.17,4.99,7.82,5.37,11.05,9.4s1.22,8.52.97,13.13c-.31,5.71,5.1,8.26,5.95,13.66,1.22,7.77-6.31,10.37-5.95,17,.25,4.61,2.4,8.93-.97,13.13-2.25,2.81-5.41,3.69-8.13,5.68-5.8,4.25-2.53,13.42-11.62,16.01-4.2,1.19-8.26-.17-11.88,2.76-2.88,2.32-4.67,6.04-8.49,7.26-5.54,1.78-9.44-2.52-14.29-2.71-5.68-.23-9.92,5.39-16.27,2.18-3-1.51-5.06-4.98-7.63-7.01-4.23-3.34-11.13-.49-15.38-4.38Z" fill="#309ed8"/>
  <path d="M105.9,48.16c2.62-2.4,4.63,2.29,5.49,4.15,11.18,24.3-2.72,54.2-28.45,61.17-32.53,8.81-61.94-19.79-55.18-52.42,6.7-32.35,48.21-46,72.66-23.47,1.41,1.3,3.97,3.28,1.82,5.12s-3.94-1.17-5.41-2.36c-21.92-17.73-54.36-9.12-63.47,17.74-12.16,35.84,28.89,66.88,60.12,45.47,15.09-10.35,21.25-29.48,14.84-46.78-.62-1.67-3.22-6.2-3.04-7.43.04-.31.4-.97.63-1.18Z" fill="#309ed8"/>
  <path d="M88.34,51.73c5.85-1,9.94,4.56,7.31,9.8l-27.49,27.49c-2.01,1.18-5.16,1.11-7.08-.21l-14.44-14.57c-3.03-4.9,1.2-10.91,6.76-10.07,4.04.61,8.2,7.12,11.39,9.6l20.3-20.3c.86-.69,2.16-1.54,3.25-1.73ZM89.16,56.14c-.41.09-.74.35-1.03.63l-22.64,22.4-1.19.07-10.9-10.39c-2.78-.92-4.32,1.37-2.43,3.81,2.01,2.6,9.13,9.65,11.75,11.74,1.84,1.47,2.54,1.31,4.29-.13,8.35-6.88,15.87-16.99,24.16-24.19,1.8-1.73.53-4.5-2-3.94Z" fill="#309ed8"/>
  <path d="M89.16,56.14c2.53-.56,3.81,2.21,2,3.94-8.29,7.2-15.81,17.31-24.16,24.19-1.75,1.44-2.45,1.6-4.29.13-2.61-2.08-9.74-9.14-11.75-11.74-1.89-2.44-.35-4.73,2.43-3.81l10.9,10.39,1.19-.07,22.64-22.4c.3-.28.63-.54,1.03-.63Z" display="none" fill="#006838"/>
</svg>