<?xml version="1.0" encoding="UTF-8"?>
<svg id="Logo" xmlns="http://www.w3.org/2000/svg" baseProfile="tiny" version="1.2" viewBox="0 0 566.93 113.39">

  <path
    d="M140.95,31.49l4.09,3.49c19.35,22.61-6.45,53.85-29.47,60.88-1.14.35-4.42,1.22-5.45.98-1.89-.43-1.76-2.32-.31-3.42,2.12-1.6,5.04-3,7.32-4.67,8.83-6.44,17.46-15.46,18.96-26.72-5.55,6.06-11.51,11.5-18.42,15.96-18.32,11.83-43.82,16.63-65.19,12.03-20.13-4.33-34.89-19.47-26.33-40.6.42-1.03,1.1-2.08,1.35-3.15,1.04-1.51,1.87-3.26,2.93-4.74,6.46-9.02,24.53-20.15,35.6-21.75,2.35-.34,7.73-.91,5.57,2.98-11.33,6.5-25.32,16.39-29.07,29.6-.1.35-1.19,5.16-.62,4.92,1.09-2.85,8.74-11.24,11.95-10.12,2.56.89.76,2.76.19,4.1-5.24,12.42,7.97,16.74,17.88,16.93,16.69.33,38.18-8.37,48.03-22.29,7.65-10.81-4.26-16.75-13.77-17.86-1.66-.19-6.4.44-6.43-1.99-.02-2.08,1.87-2.06,3.34-2.19,11.18-.97,25.87.96,35.75,6.33l2.09,1.29Z"
    fill="#269fe0"/>
  <path
    d="M94.91,40.25c-.28.1,1.57,2.39,1.75,2.74,3.99,8.02-10.33,15.43-16.34,17.45-6.31,2.12-18.14,3.24-21.22-4.38-2.2-5.43,1.26-11.26,5.18-14.9,1.32-1.22,3.71-3.67,5.24-1.49,1,1.43-.78,2.58-1.36,3.55-.68,1.12-1.53,3.39-1.39,4.71.35,3.07,4.31,4.27,6.95,3.7-2.8-1.88-4.16-4.94-2.99-8.2,4.11-11.43,29.58-16.88,38.78-9.31,5.36,4.4,1.29,12.74-2.63,16.66-.93.93-4.28,3.58-5.54,3.27-3.41-.86-.14-4.17.72-5.85,3.53-6.9-1.47-7.66-7.14-7.95Z"
    fill="#269fe0"/>
  <path fill="#013e5d" d="M221.73,83.6l-41.92-36.07v25.87l-7.65,10.05V30.95l41.92,36.07v-26.85l7.65-9.22v52.65Z"/>
  <path fill="#013e5d"
        d="M285.26,83.22h-56.02V30.8h56.02l-8.4,7.57h-39.97v14.85h19.05l6.07,7.58h-25.12v14.85h41.32l7.05,7.58Z"/>
  <path fill="#013e5d"
        d="M352.01,66.8c0,9.15-7.42,16.58-16.58,16.58h-42.6v-33.15l.08-19.42h42.52c3.9,0,7.5,1.35,10.28,3.75,2.92,2.62,4.5,6.07,4.5,9.75s-1.5,7.05-4.35,9.6c3.75,3.08,6.15,7.72,6.15,12.9ZM344.36,66.8c0-4.95-3.97-8.92-8.92-8.92h-23.77l6.22-7.65h17.55c3.98,0,7.2-2.62,7.2-5.92s-3.22-5.92-7.2-5.92h-34.95v37.35h34.95c4.95,0,8.92-3.97,8.92-8.92Z"/>
  <path fill="#013e5d"
        d="M412.76,56.6c0,7.12-2.85,13.87-8.03,18.97-5.17,5.02-12.07,7.8-19.35,7.8s-14.17-2.78-19.35-7.8c-5.17-5.1-8.02-11.85-8.02-18.97v-25.8l7.65,7.73v18.07c0,10.5,8.85,19.12,19.72,19.12s19.8-8.62,19.8-19.12v-19.8l7.58-6v25.8Z"/>
  <path fill="#013e5d" d="M462.63,83.22h-42.3V30.95l7.65,7.8v36.9h26.47l8.17,7.58Z"/>
  <path fill="#013e5d" d="M504.03,45.12l-24.82,38.17h-9.07l34.27-52.65,30.9,52.65h-8.85l-22.42-38.17Z"/>

</svg>
